PathFileType	4	(X/Y/Z)	D:\TRACE\spotREDO_2-26-24\spot_justArm_Motion_1_1-v60.trc
DataRate	CameraRate	NumFrames	NumMarkers	Units	OrigDataRate	OrigDataStartFrame	OrigNumFrames
100.00	100.00	      38	9	mm	100.00	4376	      7000
Frame#	Time	front left toe			Front right toe			aft left toe			aft right toe			Arm			FL body			FR body			AL Body			AR Body			
		X1	Y1	Z1	X2	Y2	Z2	X3	Y3	Z3	X4	Y4	Z4	X5	Y5	Z5	X6	Y6	Z6	X7	Y7	Z7	X8	Y8	Z8	X9	Y9	Z9	

4376	43.750	-308.63400	22.56572	-32.94672	125.00943	22.34720	-152.71365	-178.69260	15.10816	554.81281	258.77399	18.39077	448.60760	-39.99576	699.31183	-757.51898	-166.85019	557.33777	-124.48708	-14.34951	561.40033	-160.67390	29.06531	542.91394	736.75385	174.61024	543.59930	705.47968	
4377	43.760	-309.25702	22.56619	-33.20337	123.65363	21.98698	-153.03851	-179.23811	15.03040	554.50458	258.20294	18.45063	448.40155	-40.11821	699.34656	-757.77008	-167.19814	557.04462	-124.39726	-14.84800	561.09216	-160.84521	28.72438	543.22662	736.68555	174.41934	543.92133	705.35559	
4378	43.770	-310.00537	22.59799	-33.41771	122.84691	21.73960	-153.21281	-179.54724	15.21811	554.29993	257.86893	19.00391	448.35437	-40.18933	699.52625	-758.06189	-167.87999	556.58313	-124.57872	-15.30810	560.74408	-160.92101	28.45632	543.71692	736.60620	174.14394	544.40808	705.27234	
4379	43.780	-310.61530	22.24374	-33.02798	121.95974	21.56919	-153.21791	-180.84090	16.54086	554.45459	256.93137	19.30709	448.26694	-40.05479	700.05859	-758.52728	-168.35446	556.26459	-124.58936	-15.83055	560.42694	-160.86002	28.20424	544.21960	736.50348	173.76613	545.04828	705.00909	
4380	43.790	-311.12308	22.06928	-33.04134	121.52441	21.50052	-153.22966	-181.51476	16.93550	554.49249	255.97409	19.44636	447.97711	-39.44780	700.68701	-758.77228	-169.09329	555.85986	-124.53024	-16.56536	560.06989	-160.99831	27.97983	544.79572	736.59888	173.81671	545.42859	704.81708	
4381	43.800	-311.89865	21.71303	-33.22383	120.74447	21.39065	-153.53496	-182.11667	17.22069	554.49652	255.67543	19.65652	448.01666	-38.59938	701.74854	-759.07629	-169.88260	555.35834	-124.40857	-17.75671	559.61786	-161.16432	27.88731	545.18195	736.31384	173.38503	545.88220	704.63837	
4382	43.810	-313.05200	22.08975	-33.30483	120.10958	21.32013	-153.60728	-182.72337	17.73747	554.57587	254.96480	20.21280	447.79782	-37.14566	703.26837	-759.23383	-170.93976	555.07794	-124.27757	-18.75744	559.34619	-161.26480	27.71282	545.77606	736.47711	173.22809	546.56598	704.47119	
4383	43.820	-313.68011	21.84911	-33.03844	119.29147	21.30657	-153.81502	-183.08464	18.02398	554.49927	253.91902	20.18723	447.63052	-35.18299	705.42694	-759.53644	-172.61522	555.05353	-124.81821	-20.02956	559.08044	-161.17511	27.50278	546.31793	736.26263	173.05257	547.25342	704.43134	
4384	43.830	-314.62131	21.66476	-33.33712	118.18378	21.49094	-154.04478	-184.13260	18.74955	554.34949	253.55725	20.47729	447.74872	-32.92620	707.69940	-759.57062	-173.68414	554.38696	-124.19655	-21.43199	558.75769	-161.16859	27.40676	546.72693	736.14484	172.73055	547.52997	703.90948	
4385	43.840	-315.50143	21.65623	-33.32885	117.32480	20.97407	-154.01021	-184.91742	19.30179	554.20654	252.89259	20.92403	447.51660	-29.86586	710.35736	-759.41412	-174.86740	554.04889	-124.15822	-22.75192	558.40070	-161.41956	27.22042	547.08417	736.07977	172.50253	547.92877	703.58154	
4386	43.850	-316.16406	21.60503	-33.13786	116.27399	21.07627	-154.20323	-185.46910	19.47375	554.04688	252.14549	21.28625	447.37866	-26.39742	713.66571	-759.41199	-176.25371	553.85986	-123.93504	-24.05592	558.19781	-161.50659	27.01246	547.40680	735.93311	172.06728	548.39594	703.30377	
4387	43.860	-317.04056	21.39522	-33.11559	115.75692	20.36712	-154.32925	-186.24406	19.89086	553.93927	250.88304	21.07273	447.11304	-22.57364	717.28864	-759.45374	-177.31775	553.89166	-123.82574	-25.29176	558.18030	-161.46997	26.38842	547.81061	735.77136	171.50996	548.65308	703.14197	
4388	43.870	-317.65305	21.30523	-33.27579	115.01581	20.98607	-154.34248	-186.99677	20.15666	553.99609	250.56923	21.55303	447.05209	-18.52980	720.87378	-758.56909	-178.39996	554.03204	-124.04657	-26.33148	558.31036	-161.49049	25.59531	547.96014	735.84070	170.98750	548.91632	702.97888	
4389	43.880	-318.60837	21.32281	-33.60760	114.29552	20.86141	-154.43619	-187.69344	20.44911	553.95734	249.97601	22.35457	447.14151	-14.35648	724.53265	-758.11279	-179.36475	554.11169	-124.15985	-27.05417	558.49579	-161.63231	24.30216	548.10278	735.75690	169.84462	549.17517	702.88440	
4390	43.890	-319.40448	21.64186	-34.00945	113.30264	20.85669	-154.58571	-188.61328	20.56772	553.67395	248.75293	22.26878	446.88278	-10.21160	728.09808	-757.36255	-179.79433	554.19861	-124.31067	-27.74905	558.67181	-161.82758	23.14787	548.21283	735.26025	168.62242	549.47119	702.96252	
4391	43.900	-319.93393	21.56179	-34.10288	114.53529	21.49541	-153.73445	-190.04866	20.99732	553.52948	247.98030	22.65220	446.99667	-6.41723	731.42987	-756.99213	-180.07179	554.34222	-124.53791	-28.46605	558.87933	-161.97488	21.51206	548.31036	735.35583	167.09048	549.69257	703.14886	
4392	43.910	-320.40024	21.47029	-34.40987	112.04975	20.20391	-154.69579	-190.63687	21.05412	553.32562	247.18036	23.30738	447.09415	-3.24253	734.48193	-756.61542	-180.06741	554.66492	-125.10667	-28.29984	559.39105	-161.99825	19.71033	548.43884	735.31812	165.02940	550.07495	703.50592	
4393	43.920	-321.20343	21.80285	-34.65089	111.59134	19.75716	-154.70978	-192.18651	21.56827	553.04071	245.81390	23.26354	446.93875	-0.42913	737.10272	-756.42285	-179.91574	555.10559	-125.71323	-27.74741	559.98596	-162.01479	17.41203	548.86115	735.67407	163.24152	550.17737	703.76538	
4394	43.930	-322.01227	22.28690	-34.98415	110.89761	19.62914	-154.74762	-192.89531	21.64662	553.16882	245.38026	24.15517	447.05594	1.62809	739.17468	-756.16656	-179.69086	555.51770	-126.18179	-27.39412	560.36926	-162.06108	15.64095	548.91528	735.55615	161.04172	550.32178	704.29004	
4395	43.940	-322.62369	22.40115	-35.46383	110.05193	19.69975	-154.92892	-193.79965	21.99490	553.10266	243.82489	24.17055	446.92062	2.75821	740.88745	-756.10840	-179.40694	555.87378	-126.66312	-26.90802	560.73840	-162.23674	13.33157	548.87366	735.17114	159.09915	550.59717	704.59113	
4396	43.950	-322.90829	22.40160	-35.70901	109.53394	19.49599	-155.02991	-194.87100	22.21533	552.83557	243.05943	24.54398	447.18420	3.12711	742.06525	-756.24390	-178.72395	556.21399	-127.31775	-26.04613	560.91083	-161.87029	11.65374	548.92023	735.18555	157.43198	550.60565	704.83209	
4397	43.960	-323.77066	22.53487	-36.17496	108.78461	19.25682	-155.10149	-195.73990	22.51079	552.65802	242.53308	25.26428	446.99350	2.63064	742.86182	-756.65137	-178.55574	556.56061	-127.64855	-25.73593	561.47723	-162.39244	9.93976	549.31384	735.61340	155.60828	550.86829	705.42871	
4398	43.970	-324.50842	22.56753	-36.39265	108.53835	19.00629	-154.82039	-196.67317	22.72096	552.45862	241.18256	25.51284	447.07339	1.75820	743.16827	-756.83038	-178.23175	556.84210	-128.11580	-25.41132	561.76416	-162.65932	8.51057	549.40765	735.10400	154.46838	551.08167	705.63727	
4399	43.980	-325.15933	22.43746	-36.42631	107.13934	18.17898	-155.00708	-198.02924	23.23218	552.27899	240.60857	25.61465	447.05463	-0.46115	743.24158	-757.29761	-177.98643	556.91711	-128.40662	-25.20240	561.76697	-162.73077	6.92011	549.62042	735.00946	153.18799	551.35455	705.78802	
4400	43.990	-326.14893	22.53260	-36.63086	106.20049	17.77721	-155.44492	-198.52698	23.45211	552.19983	239.74524	25.98678	446.88959	-2.72785	742.91864	-757.51685	-178.01274	556.85583	-128.92804	-25.27721	561.66272	-162.90121	6.09059	550.02142	734.89325	152.16479	551.78845	705.85120	
4401	44.000	-327.02170	22.38991	-37.12357	105.70739	18.13591	-155.14687	-199.44019	23.99199	552.19037	238.49820	26.15598	446.89420	-5.96528	742.37677	-758.06689	-178.17891	556.74506	-129.21605	-25.70119	561.53888	-163.06604	5.45167	550.52716	734.68127	151.51918	552.10925	705.86365	
4402	44.010	-328.08661	22.31381	-37.08984	104.96362	17.87714	-155.10172	-200.22435	24.42704	552.06860	237.92371	26.31033	446.98740	-9.17256	741.67963	-758.74280	-178.57611	556.60956	-129.17674	-25.41422	561.45337	-163.26494	4.90234	550.86163	734.45648	150.82582	552.49280	705.66241	
4403	44.020	-329.02097	22.31843	-37.03133	103.78294	17.96223	-155.30504	-200.83900	24.92897	551.87195	237.41400	26.61412	446.80051	-12.74393	740.63403	-759.22577	-179.13091	556.42889	-129.32864	-25.78054	561.19922	-163.11322	4.50835	551.11743	734.21979	150.23369	553.03326	705.34912	
4404	44.030	-329.90073	22.16216	-37.35489	102.79901	17.94626	-155.38647	-201.56523	25.38164	551.80353	236.05687	26.65911	446.50098	-16.44880	739.69934	-759.91595	-179.91335	556.08105	-129.40877	-26.84819	560.95441	-163.40114	4.46608	551.40833	734.03308	149.93752	552.92267	704.56378	
4405	44.040	-331.09457	22.08485	-36.85884	101.91196	17.76566	-155.52484	-202.83978	26.18577	551.48169	235.41609	26.79989	446.31494	-20.11103	738.54047	-760.26190	-180.94435	555.57062	-129.42465	-28.24531	560.76013	-163.82457	4.54729	552.02576	734.46484	150.51414	553.93793	704.60754	
4406	44.050	-331.89655	21.69577	-36.79831	100.83063	17.60032	-155.84656	-203.23367	26.41853	551.51288	235.14911	27.11379	446.14038	-23.62246	737.57007	-760.75702	-182.35274	555.28271	-129.24109	-29.59550	560.58282	-163.97218	5.29667	552.35522	733.82147	150.82365	554.39423	704.23596	
4407	44.060	-333.10944	21.68076	-36.62734	99.48514	17.64108	-156.27606	-203.76456	26.99050	551.64288	234.34842	27.39491	445.99924	-26.18640	736.34521	-760.88202	-183.67961	554.81482	-129.18782	-31.22014	560.28381	-164.13428	5.46133	553.16638	733.94910	151.19435	554.96777	703.65393	
4408	44.070	-334.28983	21.44128	-36.77191	98.66844	17.67503	-156.32260	-204.35718	27.39850	551.64160	233.06142	27.55812	445.60458	-28.68346	735.31573	-761.44098	-185.45718	554.19421	-128.78876	-32.99360	559.85883	-164.31091	5.92261	553.56042	733.72662	151.69080	555.53601	702.75934	
4409	44.080	-335.24252	21.23771	-36.68308	97.41219	17.52171	-156.40883	-205.33575	28.14877	551.43207	232.21179	27.69317	445.23032	-30.63498	734.26025	-761.76892	-187.31805	553.71625	-128.81866	-34.76451	559.37659	-164.43387	6.21832	554.08887	733.43744	151.84943	556.07550	702.21069	
4410	44.090	-336.38681	20.92635	-36.45594	96.23450	17.74598	-156.50397	-205.86761	28.49028	551.34613	231.22502	27.54471	444.94708	-32.10863	733.31055	-761.91193	-189.07727	553.43939	-128.39781	-36.54345	559.04163	-164.69777	6.47780	554.77142	733.20648	152.09946	556.53857	701.75250	
4411	44.100	-337.30823	20.67916	-36.25103	95.33598	17.72626	-156.65193	-207.04097	29.17752	551.13599	230.30405	27.82778	444.81143	-33.09171	732.30951	-762.25153	-190.94017	553.01428	-128.13426	-38.64904	558.71057	-164.81877	6.43124	555.23407	732.91229	151.85895	557.22211	701.32184	
4412	44.110	-338.29718	20.57626	-36.71185	94.35703	17.69513	-156.95918	-207.80098	29.32440	551.02509	229.83739	28.42358	444.66278	-33.46566	731.61212	-762.40869	-192.54077	552.82184	-128.04668	-40.16059	558.51929	-164.97459	6.35011	555.57098	732.70502	151.65160	557.75385	700.76349	
4413	44.120	-339.62354	20.66819	-36.31499	92.93213	17.57333	-157.38423	-208.66948	29.60860	550.94067	228.60139	28.44720	444.76431	-33.31186	731.00500	-762.65948	-194.25858	552.48944	-127.98745	-41.84525	558.34760	-165.01935	5.95937	556.09540	732.56067	151.41197	558.32898	700.23267	
